<mxfile host="app.diagrams.net" modified="2023-05-15T05:24:55.433Z" agent="Mozilla/5.0 (Windows NT 10.0; Win64; x64) AppleWebKit/537.36 (KHTML, like Gecko) Chrome/113.0.0.0 Safari/537.36" etag="jT7D3SiJb5nsSMk54Iw1" version="21.3.0" type="device">
  <diagram name="페이지-1" id="M7_qFgVwz1OYp336S-wd">
    <mxGraphModel dx="1034" dy="732" grid="1" gridSize="10" guides="1" tooltips="1" connect="1" arrows="1" fold="1" page="1" pageScale="1" pageWidth="827" pageHeight="1169" math="0" shadow="0">
      <root>
        <mxCell id="0" />
        <mxCell id="1" parent="0" />
        <mxCell id="q4l0juFomU1bNzkdL8IT-6" style="edgeStyle=orthogonalEdgeStyle;rounded=0;orthogonalLoop=1;jettySize=auto;html=1;entryX=0;entryY=0.5;entryDx=0;entryDy=0;" edge="1" parent="1" source="q4l0juFomU1bNzkdL8IT-1" target="q4l0juFomU1bNzkdL8IT-2">
          <mxGeometry relative="1" as="geometry" />
        </mxCell>
        <mxCell id="q4l0juFomU1bNzkdL8IT-1" value="SNS 이용자" style="shape=umlActor;verticalLabelPosition=bottom;verticalAlign=top;html=1;outlineConnect=0;" vertex="1" parent="1">
          <mxGeometry x="39" y="260" width="30" height="60" as="geometry" />
        </mxCell>
        <mxCell id="q4l0juFomU1bNzkdL8IT-7" style="edgeStyle=orthogonalEdgeStyle;rounded=0;orthogonalLoop=1;jettySize=auto;html=1;exitX=1;exitY=0.5;exitDx=0;exitDy=0;" edge="1" parent="1" source="q4l0juFomU1bNzkdL8IT-2" target="q4l0juFomU1bNzkdL8IT-3">
          <mxGeometry relative="1" as="geometry" />
        </mxCell>
        <mxCell id="q4l0juFomU1bNzkdL8IT-2" value="이미지 업로드" style="rounded=0;whiteSpace=wrap;html=1;" vertex="1" parent="1">
          <mxGeometry x="129" y="260" width="120" height="60" as="geometry" />
        </mxCell>
        <mxCell id="q4l0juFomU1bNzkdL8IT-8" style="edgeStyle=orthogonalEdgeStyle;rounded=0;orthogonalLoop=1;jettySize=auto;html=1;exitX=1;exitY=0.5;exitDx=0;exitDy=0;entryX=0;entryY=0.5;entryDx=0;entryDy=0;" edge="1" parent="1" source="q4l0juFomU1bNzkdL8IT-3" target="q4l0juFomU1bNzkdL8IT-4">
          <mxGeometry relative="1" as="geometry" />
        </mxCell>
        <mxCell id="q4l0juFomU1bNzkdL8IT-3" value="얼굴 이미지 추출" style="rounded=0;whiteSpace=wrap;html=1;" vertex="1" parent="1">
          <mxGeometry x="299" y="260" width="120" height="60" as="geometry" />
        </mxCell>
        <mxCell id="q4l0juFomU1bNzkdL8IT-16" style="edgeStyle=orthogonalEdgeStyle;rounded=0;orthogonalLoop=1;jettySize=auto;html=1;exitX=1;exitY=0.5;exitDx=0;exitDy=0;" edge="1" parent="1" source="q4l0juFomU1bNzkdL8IT-4" target="q4l0juFomU1bNzkdL8IT-15">
          <mxGeometry relative="1" as="geometry" />
        </mxCell>
        <mxCell id="q4l0juFomU1bNzkdL8IT-4" value="딥러닝 모델 이용&lt;br&gt;얼굴 인식" style="rounded=0;whiteSpace=wrap;html=1;" vertex="1" parent="1">
          <mxGeometry x="469" y="260" width="120" height="60" as="geometry" />
        </mxCell>
        <mxCell id="q4l0juFomU1bNzkdL8IT-15" value="&quot;@태그1, @태그2, ...&quot;" style="text;html=1;strokeColor=none;fillColor=none;align=center;verticalAlign=middle;whiteSpace=wrap;rounded=0;" vertex="1" parent="1">
          <mxGeometry x="639" y="275" width="150" height="30" as="geometry" />
        </mxCell>
      </root>
    </mxGraphModel>
  </diagram>
</mxfile>
